<svg width="20" height="15" viewBox="0 0 20 15" fill="none" xmlns="http://www.w3.org/2000/svg">
<g opacity="0.3">
<path d="M10 5.41156C8.75736 5.41156 7.75 6.41892 7.75 7.66156C7.75 8.9042 8.75736 9.91156 10 9.91156C10.6805 9.91156 11.2904 9.6095 11.7029 9.13215C11.0168 8.99431 10.5 8.38829 10.5 7.66156C10.5 6.93483 11.0168 6.32881 11.7029 6.19097C11.2904 5.71362 10.6805 5.41156 10 5.41156Z" fill="#3861CB"/>
<path fill-rule="evenodd" clip-rule="evenodd" d="M9.99997 0.91156C5.91882 0.91156 2.36847 3.17842 0.542558 6.51713C0.152487 7.23038 0.15248 8.09258 0.54254 8.80584C2.36843 12.1446 5.91882 14.4116 10 14.4116C14.0812 14.4116 17.6315 12.1447 19.4574 8.80599C19.8475 8.09274 19.8475 7.23054 19.4575 6.51728C17.6316 3.1785 14.0812 0.91156 9.99997 0.91156ZM6.25 7.66156C6.25 5.59049 7.92893 3.91156 10 3.91156C12.0711 3.91156 13.75 5.59049 13.75 7.66156C13.75 9.73263 12.0711 11.4116 10 11.4116C7.92893 11.4116 6.25 9.73263 6.25 7.66156Z" fill="#3861CB"/>
</g>
<path d="M10 5.41156C8.75736 5.41156 7.75 6.41892 7.75 7.66156C7.75 8.9042 8.75736 9.91156 10 9.91156C10.6805 9.91156 11.2904 9.6095 11.7029 9.13215C11.0168 8.99431 10.5 8.38829 10.5 7.66156C10.5 6.93483 11.0168 6.32881 11.7029 6.19097C11.2904 5.71362 10.6805 5.41156 10 5.41156Z" fill="#3861CB"/>
</svg>
