<svg width="21" height="21" viewBox="0 0 21 21" fill="none" xmlns="http://www.w3.org/2000/svg">
<g clip-path="url(#clip0_1093_138670)">
<path d="M20.4996 10.8912C20.4996 10.2114 20.4434 9.528 20.3234 8.85925H10.7002V12.7101H16.211C15.9823 13.952 15.2475 15.0507 14.1716 15.7488V18.2475H17.4593C19.39 16.5058 20.4996 13.9337 20.4996 10.8912Z" fill="#4285F4"/>
<path d="M10.7002 20.6616C13.4518 20.6616 15.7723 19.776 17.463 18.2475L14.1753 15.7488C13.2606 16.3588 12.0797 16.7042 10.7039 16.7042C8.04224 16.7042 5.78544 14.9441 4.9757 12.5778H1.58301V15.1536C3.31497 18.5304 6.84261 20.6616 10.7002 20.6616Z" fill="#34A853"/>
<path d="M4.97227 12.5778C4.54491 11.3358 4.54491 9.99097 4.97227 8.749V6.17322H1.58333C0.136285 8.99887 0.136285 12.3279 1.58333 15.1536L4.97227 12.5778Z" fill="#FBBC04"/>
<path d="M10.7002 4.61894C12.1547 4.59689 13.5605 5.13336 14.6139 6.11811L17.5268 3.26307C15.6824 1.56548 13.2344 0.632167 10.7002 0.661563C6.84261 0.661563 3.31497 2.79274 1.58301 6.17323L4.97195 8.74901C5.77795 6.379 8.03849 4.61894 10.7002 4.61894Z" fill="#EA4335"/>
</g>
<defs>
<clipPath id="clip0_1093_138670">
<rect width="20" height="20" fill="white" transform="translate(0.5 0.66156)"/>
</clipPath>
</defs>
</svg>
