<svg width="20" height="18" viewBox="0 0 20 18" fill="none" xmlns="http://www.w3.org/2000/svg">
<g opacity="0.3">
<path d="M4.69509 14.9057C2.83558 13.917 1.30102 12.3999 0.29254 10.5558C-0.0975196 9.84252 -0.0975129 8.98032 0.292558 8.26707C2.11847 4.92836 5.66882 2.6615 9.74997 2.6615C11.8073 2.6615 13.7297 3.23754 15.3643 4.23654L12.6123 6.98858C11.9244 6.17679 10.8974 5.6615 9.75 5.6615C7.67893 5.6615 6 7.34043 6 9.4115C6 10.5589 6.51529 11.5859 7.32708 12.2738L4.69509 14.9057Z" fill="#94A3B8"/>
<path d="M6.16934 15.5528C7.28952 15.947 8.49467 16.1615 9.75003 16.1615C13.8312 16.1615 17.3815 13.8946 19.2074 10.5559C19.5975 9.84268 19.5975 8.98048 19.2075 8.26722C18.5464 7.05849 17.6594 5.99024 16.603 5.11918L13.3532 8.36898C13.4488 8.69995 13.5 9.04974 13.5 9.4115C13.5 11.4826 11.8211 13.1615 9.75 13.1615C9.38824 13.1615 9.03845 13.1103 8.70748 13.0147L6.16934 15.5528Z" fill="#94A3B8"/>
</g>
<path d="M9.75 9.41153L8.16446 11.008C7.75409 10.6004 7.5 10.0356 7.5 9.41153C7.5 8.16889 8.50736 7.16153 9.75 7.16153C10.2625 7.16153 10.7349 7.33285 11.1132 7.62133L9.75 9.41153Z" fill="#94A3B8"/>
<path d="M17 1.66153L2 16.6615" stroke="#94A3B8" stroke-width="1.5" stroke-linecap="round" stroke-linejoin="round"/>
</svg>
