<svg width="221" height="46" viewBox="0 0 221 46" fill="none" xmlns="http://www.w3.org/2000/svg">
<path fill-rule="evenodd" clip-rule="evenodd" d="M22.7273 16.1158L23.8384 15.1528L25.7177 13.5239V2.59199C25.7177 1.16064 24.3787 0 22.7273 0C21.0759 0 19.7368 1.16064 19.7368 2.59199V13.5239L21.6161 15.1528L22.7273 16.1158ZM22.7273 29.5457L21.6161 30.5088L19.7368 32.1377V43.0696C19.7368 44.5009 21.0759 45.6616 22.7273 45.6616C24.3787 45.6616 25.7177 44.5009 25.7177 43.0696V32.1377L23.8384 30.5088L22.7273 29.5457ZM32.2034 19.6972H43.1574C44.5917 19.6972 45.7547 21.0335 45.7547 22.6816C45.7547 24.3297 44.5917 25.666 43.1574 25.666H32.2034L30.5706 23.7905L29.6062 22.6816L30.5706 21.5727L32.2034 19.6972ZM16.1485 22.6816L15.1835 21.5727L13.5512 19.6972H2.59724C1.16299 19.6972 0 21.0335 0 22.6816C0 24.3297 1.16299 25.666 2.59724 25.666H13.5512L15.1835 23.7905L16.1485 22.6816ZM17.8351 24.1737L21.5313 27.8624L20.5602 28.8316L10.4425 38.9287C9.93201 39.4382 9.2635 39.6926 8.59441 39.6926C8.25986 39.6926 7.9259 39.6289 7.6111 39.5014C7.29631 39.3744 7.00184 39.1832 6.74628 38.9287C5.7258 37.9103 5.7258 36.2584 6.74628 35.2399L16.8639 25.1428L17.8351 24.1737ZM24.2228 17.7991L27.919 21.4878L28.8901 20.5187L39.0078 10.4216C40.0283 9.40318 40.0283 7.75182 39.0078 6.73283C38.7522 6.47838 38.4578 6.2871 38.143 6.16016C37.8288 6.03264 37.4942 5.96888 37.1597 5.96888C36.4906 5.96888 35.8221 6.22334 35.3115 6.73283L25.1939 16.83L24.2228 17.7991ZM22.2791 18.6089L25.9114 22.234L28.4799 24.7973L38.4226 34.7201C39.426 35.7215 39.426 37.3444 38.4226 38.3452C37.9215 38.8459 37.264 39.096 36.6064 39.096C35.9495 39.096 35.292 38.8459 34.7903 38.3452L24.8475 28.4224L22.2791 25.8591L18.6467 22.234L16.0783 19.6707L6.13554 9.74791C5.13213 8.74652 5.13213 7.12366 6.13554 6.12284C6.26053 5.99752 6.3958 5.88815 6.5385 5.79417C6.82331 5.60676 7.13723 5.48144 7.46085 5.41879C7.62295 5.38746 7.78733 5.37208 7.95171 5.37208C8.60866 5.37208 9.26619 5.62214 9.76789 6.12284L19.7106 16.0456L22.2791 18.6089Z" fill="#3861CB"/>
<path d="M53.7539 9.56479V3.61798H79.6716V9.56479H70.0214V35.1818H63.4041V9.56479H53.7539Z" fill="#3861CB"/>
<path d="M81.8895 27.7712V18.4393C81.8895 13.4988 84.371 11.0286 89.334 11.0286H95.7674C100.73 11.0286 103.212 13.4988 103.212 18.4393V27.7712C103.212 32.7116 100.73 35.1818 95.7674 35.1818H89.334C84.371 35.1818 81.8895 32.7116 81.8895 27.7712ZM88.2311 28.2286C88.2311 29.2045 88.7213 29.6925 89.7016 29.6925H95.3998C96.3801 29.6925 96.8703 29.2045 96.8703 28.2286V17.9818C96.8703 17.0059 96.3801 16.518 95.3998 16.518H89.7016C88.7213 16.518 88.2311 17.0059 88.2311 17.9818V28.2286Z" fill="#3861CB"/>
<path d="M109.452 44.3307V11.0286H122.871C127.833 11.0286 130.315 13.4988 130.315 18.4393V27.7712C130.315 32.7116 127.833 35.1818 122.871 35.1818H115.794V44.3307H109.452ZM115.794 29.6925H122.503C123.483 29.6925 123.973 29.2045 123.973 28.2286V17.9818C123.973 17.0059 123.483 16.518 122.503 16.518H115.794V29.6925Z" fill="#3861CB"/>
<path d="M136.374 26.3988V1.33075H142.715V27.0393C142.715 28.93 143.696 29.9822 145.656 30.1956V35.6393C139.468 35.6393 136.374 32.5591 136.374 26.3988Z" fill="#3861CB"/>
<path d="M156.941 35.1818C151.978 35.1818 149.497 32.7573 149.497 27.9084C149.497 23.0595 151.978 20.635 156.941 20.635H163.282V17.9818C163.282 17.0059 162.792 16.518 161.812 16.518H152.07V13.0871L154.827 11.0286H162.18C167.143 11.0286 169.624 13.4988 169.624 18.4393V35.1818H156.941ZM155.838 28.2286C155.838 29.2045 156.328 29.6925 157.309 29.6925H163.282V25.4839H157.309C156.328 25.4839 155.838 25.9719 155.838 26.9478V28.2286Z" fill="#3861CB"/>
<path d="M176.049 35.1818V1.33075H182.39V11.0286H189.467C194.43 11.0286 196.911 13.4988 196.911 18.4393V27.7712C196.911 32.7116 194.43 35.1818 189.467 35.1818H176.049ZM182.39 29.6925H189.099C190.08 29.6925 190.57 29.2045 190.57 28.2286V17.9818C190.57 17.0059 190.08 16.518 189.099 16.518H182.39V29.6925Z" fill="#3861CB"/>
<path d="M202.327 33.1233V29.6925H212.896C213.938 29.6925 214.458 29.113 214.458 27.9542C214.458 26.7648 214.029 26.0939 213.172 25.9414L208.209 25.118C204.287 24.4471 202.327 22.1903 202.327 18.3478C202.327 13.4683 204.808 11.0286 209.771 11.0286H216.894L219.651 13.0871V16.518H210.139C209.097 16.518 208.576 17.0974 208.576 18.2563C208.576 19.4761 209.051 20.1623 210.001 20.3148L214.918 21.1382C218.809 21.7786 220.754 24.0049 220.754 27.8169C220.754 32.7268 218.257 35.1818 213.264 35.1818H205.084L202.327 33.1233Z" fill="#3861CB"/>
</svg>
