<svg width="21" height="21" viewBox="0 0 21 21" fill="none" xmlns="http://www.w3.org/2000/svg">
<g clip-path="url(#clip0_7882_58181)">
<path d="M0.5 10.5147C0.5 5.24274 4.77255 0.969238 10.0455 0.969238C15.3165 0.969238 19.5909 5.24274 19.5909 10.5147C19.5909 15.7866 15.3165 20.0601 10.0455 20.0601C4.77255 20.0601 0.5 15.7866 0.5 10.5147Z" fill="#FC3F1D"/>
<path d="M11.4053 5.75756H10.4694C8.75348 5.75756 7.85098 6.69652 7.85098 8.0809C7.85098 9.64584 8.47493 10.3791 9.75627 11.3191L10.8148 12.0896L7.77298 17H5.5L8.22981 12.6072C6.65979 11.3914 5.77855 10.2105 5.77855 8.21332C5.77855 5.7094 7.39415 4 10.4582 4H13.5V16.988H11.4053V5.75756Z" fill="white"/>
</g>
<defs>
<clipPath id="clip0_7882_58181">
<rect width="20" height="20" fill="white" transform="translate(0.5 0.66156)"/>
</clipPath>
</defs>
</svg>
